<?xml version="1.0" encoding="UTF-8" standalone="no"?>
<!DOCTYPE svg PUBLIC "-//W3C//DTD SVG 1.1//EN"
 "http://www.w3.org/Graphics/SVG/1.1/DTD/svg11.dtd">
<!-- Generated by graphviz version 2.26.3 (20100126.1600)
 -->
<!-- Title: G Pages: 1 -->
<svg width="808pt" height="598pt"
 viewBox="0.00 0.00 808.00 598.00" xmlns="http://www.w3.org/2000/svg" xmlns:xlink="http://www.w3.org/1999/xlink">
<g id="graph1" class="graph" transform="scale(1 1) rotate(0) translate(4 594)">
<title>G</title>
<polygon fill="white" stroke="white" points="-4,5 -4,-594 805,-594 805,5 -4,5"/>
<g id="graph2" class="cluster"><title>cluster_Global</title>
<polyline fill="none" stroke="gray" points="522,-8 780,-8 "/>
<path fill="none" stroke="gray" d="M780,-8C786,-8 792,-14 792,-20"/>
<polyline fill="none" stroke="gray" points="792,-20 792,-570 "/>
<path fill="none" stroke="gray" d="M792,-570C792,-576 786,-582 780,-582"/>
<polyline fill="none" stroke="gray" points="780,-582 522,-582 "/>
<path fill="none" stroke="gray" d="M522,-582C516,-582 510,-576 510,-570"/>
<polyline fill="none" stroke="gray" points="510,-570 510,-20 "/>
<path fill="none" stroke="gray" d="M510,-20C510,-14 516,-8 522,-8"/>
<text text-anchor="middle" x="651" y="-568.1" font-family="Times Roman,serif" font-size="11.00" fill="gray">Global</text>
</g>
<g id="graph3" class="cluster"><title>cluster_\Neilime</title>
<polyline fill="none" stroke="gray" points="530,-16 772,-16 "/>
<path fill="none" stroke="gray" d="M772,-16C778,-16 784,-22 784,-28"/>
<polyline fill="none" stroke="gray" points="784,-28 784,-540 "/>
<path fill="none" stroke="gray" d="M784,-540C784,-546 778,-552 772,-552"/>
<polyline fill="none" stroke="gray" points="772,-552 530,-552 "/>
<path fill="none" stroke="gray" d="M530,-552C524,-552 518,-546 518,-540"/>
<polyline fill="none" stroke="gray" points="518,-540 518,-28 "/>
<path fill="none" stroke="gray" d="M518,-28C518,-22 524,-16 530,-16"/>
<text text-anchor="middle" x="651" y="-538.1" font-family="Times Roman,serif" font-size="11.00" fill="gray">Neilime</text>
</g>
<g id="graph4" class="cluster"><title>cluster_\Neilime\MobileDetect</title>
<polyline fill="none" stroke="gray" points="538,-24 764,-24 "/>
<path fill="none" stroke="gray" d="M764,-24C770,-24 776,-30 776,-36"/>
<polyline fill="none" stroke="gray" points="776,-36 776,-510 "/>
<path fill="none" stroke="gray" d="M776,-510C776,-516 770,-522 764,-522"/>
<polyline fill="none" stroke="gray" points="764,-522 538,-522 "/>
<path fill="none" stroke="gray" d="M538,-522C532,-522 526,-516 526,-510"/>
<polyline fill="none" stroke="gray" points="526,-510 526,-36 "/>
<path fill="none" stroke="gray" d="M526,-36C526,-30 532,-24 538,-24"/>
<text text-anchor="middle" x="651" y="-508.1" font-family="Times Roman,serif" font-size="11.00" fill="gray">MobileDetect</text>
</g>
<g id="graph5" class="cluster"><title>cluster_\Neilime\MobileDetect\Factory</title>
<polyline fill="none" stroke="gray" points="582,-418 720,-418 "/>
<path fill="none" stroke="gray" d="M720,-418C726,-418 732,-424 732,-430"/>
<polyline fill="none" stroke="gray" points="732,-430 732,-480 "/>
<path fill="none" stroke="gray" d="M732,-480C732,-486 726,-492 720,-492"/>
<polyline fill="none" stroke="gray" points="720,-492 582,-492 "/>
<path fill="none" stroke="gray" d="M582,-492C576,-492 570,-486 570,-480"/>
<polyline fill="none" stroke="gray" points="570,-480 570,-430 "/>
<path fill="none" stroke="gray" d="M570,-430C570,-424 576,-418 582,-418"/>
<text text-anchor="middle" x="651" y="-478.1" font-family="Times Roman,serif" font-size="11.00" fill="gray">Factory</text>
</g>
<g id="graph6" class="cluster"><title>cluster_\Neilime\MobileDetect\Mvc</title>
<polyline fill="none" stroke="gray" points="546,-206 756,-206 "/>
<path fill="none" stroke="gray" d="M756,-206C762,-206 768,-212 768,-218"/>
<polyline fill="none" stroke="gray" points="768,-218 768,-398 "/>
<path fill="none" stroke="gray" d="M768,-398C768,-404 762,-410 756,-410"/>
<polyline fill="none" stroke="gray" points="756,-410 546,-410 "/>
<path fill="none" stroke="gray" d="M546,-410C540,-410 534,-404 534,-398"/>
<polyline fill="none" stroke="gray" points="534,-398 534,-218 "/>
<path fill="none" stroke="gray" d="M534,-218C534,-212 540,-206 546,-206"/>
<text text-anchor="middle" x="651" y="-396.1" font-family="Times Roman,serif" font-size="11.00" fill="gray">Mvc</text>
</g>
<g id="graph7" class="cluster"><title>cluster_\Neilime\MobileDetect\Mvc\Controller</title>
<polyline fill="none" stroke="gray" points="554,-214 748,-214 "/>
<path fill="none" stroke="gray" d="M748,-214C754,-214 760,-220 760,-226"/>
<polyline fill="none" stroke="gray" points="760,-226 760,-368 "/>
<path fill="none" stroke="gray" d="M760,-368C760,-374 754,-380 748,-380"/>
<polyline fill="none" stroke="gray" points="748,-380 554,-380 "/>
<path fill="none" stroke="gray" d="M554,-380C548,-380 542,-374 542,-368"/>
<polyline fill="none" stroke="gray" points="542,-368 542,-226 "/>
<path fill="none" stroke="gray" d="M542,-226C542,-220 548,-214 554,-214"/>
<text text-anchor="middle" x="651" y="-366.1" font-family="Times Roman,serif" font-size="11.00" fill="gray">Controller</text>
</g>
<g id="graph8" class="cluster"><title>cluster_\Neilime\MobileDetect\Mvc\Controller\Plugin</title>
<polyline fill="none" stroke="gray" points="562,-222 740,-222 "/>
<path fill="none" stroke="gray" d="M740,-222C746,-222 752,-228 752,-234"/>
<polyline fill="none" stroke="gray" points="752,-234 752,-338 "/>
<path fill="none" stroke="gray" d="M752,-338C752,-344 746,-350 740,-350"/>
<polyline fill="none" stroke="gray" points="740,-350 562,-350 "/>
<path fill="none" stroke="gray" d="M562,-350C556,-350 550,-344 550,-338"/>
<polyline fill="none" stroke="gray" points="550,-338 550,-234 "/>
<path fill="none" stroke="gray" d="M550,-234C550,-228 556,-222 562,-222"/>
<text text-anchor="middle" x="651" y="-336.1" font-family="Times Roman,serif" font-size="11.00" fill="gray">Plugin</text>
</g>
<g id="graph9" class="cluster"><title>cluster_\Neilime\MobileDetect\View</title>
<polyline fill="none" stroke="gray" points="554,-32 748,-32 "/>
<path fill="none" stroke="gray" d="M748,-32C754,-32 760,-38 760,-44"/>
<polyline fill="none" stroke="gray" points="760,-44 760,-186 "/>
<path fill="none" stroke="gray" d="M760,-186C760,-192 754,-198 748,-198"/>
<polyline fill="none" stroke="gray" points="748,-198 554,-198 "/>
<path fill="none" stroke="gray" d="M554,-198C548,-198 542,-192 542,-186"/>
<polyline fill="none" stroke="gray" points="542,-186 542,-44 "/>
<path fill="none" stroke="gray" d="M542,-44C542,-38 548,-32 554,-32"/>
<text text-anchor="middle" x="651" y="-184.1" font-family="Times Roman,serif" font-size="11.00" fill="gray">View</text>
</g>
<g id="graph10" class="cluster"><title>cluster_\Neilime\MobileDetect\View\Helper</title>
<polyline fill="none" stroke="gray" points="562,-40 740,-40 "/>
<path fill="none" stroke="gray" d="M740,-40C746,-40 752,-46 752,-52"/>
<polyline fill="none" stroke="gray" points="752,-52 752,-156 "/>
<path fill="none" stroke="gray" d="M752,-156C752,-162 746,-168 740,-168"/>
<polyline fill="none" stroke="gray" points="740,-168 562,-168 "/>
<path fill="none" stroke="gray" d="M562,-168C556,-168 550,-162 550,-156"/>
<polyline fill="none" stroke="gray" points="550,-156 550,-52 "/>
<path fill="none" stroke="gray" d="M550,-52C550,-46 556,-40 562,-40"/>
<text text-anchor="middle" x="651" y="-154.1" font-family="Times Roman,serif" font-size="11.00" fill="gray">Helper</text>
</g>
<!-- \\Neilime\\MobileDetect\\Factory\\MobileDetectFactory -->
<g id="node5" class="node"><title>\\Neilime\\MobileDetect\\Factory\\MobileDetectFactory</title>
<polygon fill="none" stroke="black" points="723,-462 579,-462 579,-426 723,-426 723,-462"/>
<text text-anchor="middle" x="651" y="-441.1" font-family="Courier,monospace" font-size="11.00">MobileDetectFactory</text>
</g>
<!-- \\Zend\\ServiceManager\\FActory\\FactoryInterface -->
<g id="node16" class="node"><title>\\Zend\\ServiceManager\\FActory\\FactoryInterface</title>
<ellipse fill="none" stroke="black" cx="243" cy="-444" rx="243.245" ry="18.3848"/>
<text text-anchor="middle" x="243" y="-440.4" font-family="Times Roman,serif" font-size="14.00" fill="gray">\Zend\ServiceManager\FActory\FactoryInterface</text>
</g>
<!-- \\Neilime\\MobileDetect\\Factory\\MobileDetectFactory&#45;&gt;\\Zend\\ServiceManager\\FActory\\FactoryInterface -->
<g id="edge11" class="edge"><title>\\Neilime\\MobileDetect\\Factory\\MobileDetectFactory&#45;&gt;\\Zend\\ServiceManager\\FActory\\FactoryInterface</title>
<path fill="none" stroke="black" stroke-dasharray="1,5" d="M578.058,-444C554.067,-444 525.882,-444 496.221,-444"/>
<polygon fill="none" stroke="black" points="496.11,-440.5 486.11,-444 496.11,-447.5 496.11,-440.5"/>
</g>
<!-- \\Neilime\\MobileDetect\\Mvc\\Controller\\Plugin\\MobileDetectPlugin -->
<g id="node9" class="node"><title>\\Neilime\\MobileDetect\\Mvc\\Controller\\Plugin\\MobileDetectPlugin</title>
<polygon fill="none" stroke="black" points="720,-320 582,-320 582,-284 720,-284 720,-320"/>
<text text-anchor="middle" x="651" y="-299.1" font-family="Courier,monospace" font-size="11.00">MobileDetectPlugin</text>
</g>
<!-- \\Zend\\Mvc\\Controller\\Plugin\\AbstractPlugin -->
<g id="node18" class="node"><title>\\Zend\\Mvc\\Controller\\Plugin\\AbstractPlugin</title>
<ellipse fill="none" stroke="black" cx="243" cy="-302" rx="222.032" ry="18.3848"/>
<text text-anchor="middle" x="243" y="-298.4" font-family="Times Roman,serif" font-size="14.00" fill="gray">\Zend\Mvc\Controller\Plugin\AbstractPlugin</text>
</g>
<!-- \\Neilime\\MobileDetect\\Mvc\\Controller\\Plugin\\MobileDetectPlugin&#45;&gt;\\Zend\\Mvc\\Controller\\Plugin\\AbstractPlugin -->
<g id="edge13" class="edge"><title>\\Neilime\\MobileDetect\\Mvc\\Controller\\Plugin\\MobileDetectPlugin&#45;&gt;\\Zend\\Mvc\\Controller\\Plugin\\AbstractPlugin</title>
<path fill="none" stroke="black" d="M581.788,-302C551.631,-302 514.36,-302 475.686,-302"/>
<polygon fill="none" stroke="black" points="475.288,-298.5 465.288,-302 475.288,-305.5 475.288,-298.5"/>
</g>
<!-- \\Neilime\\MobileDetect\\Mvc\\Controller\\Plugin\\MobileDetectPluginFactory -->
<g id="node10" class="node"><title>\\Neilime\\MobileDetect\\Mvc\\Controller\\Plugin\\MobileDetectPluginFactory</title>
<polygon fill="none" stroke="black" points="743,-266 559,-266 559,-230 743,-230 743,-266"/>
<text text-anchor="middle" x="651" y="-245.1" font-family="Courier,monospace" font-size="11.00">MobileDetectPluginFactory</text>
</g>
<!-- \\Zend\\ServiceManager\\Factory\\FactoryInterface -->
<g id="node20" class="node"><title>\\Zend\\ServiceManager\\Factory\\FactoryInterface</title>
<ellipse fill="none" stroke="black" cx="243" cy="-184" rx="241.831" ry="18.3848"/>
<text text-anchor="middle" x="243" y="-180.4" font-family="Times Roman,serif" font-size="14.00" fill="gray">\Zend\ServiceManager\Factory\FactoryInterface</text>
</g>
<!-- \\Neilime\\MobileDetect\\Mvc\\Controller\\Plugin\\MobileDetectPluginFactory&#45;&gt;\\Zend\\ServiceManager\\Factory\\FactoryInterface -->
<g id="edge15" class="edge"><title>\\Neilime\\MobileDetect\\Mvc\\Controller\\Plugin\\MobileDetectPluginFactory&#45;&gt;\\Zend\\ServiceManager\\Factory\\FactoryInterface</title>
<path fill="none" stroke="black" stroke-dasharray="1,5" d="M558.418,-233.477C498.608,-224.095 420.366,-211.822 356.773,-201.847"/>
<polygon fill="none" stroke="black" points="357.119,-198.358 346.698,-200.266 356.034,-205.274 357.119,-198.358"/>
</g>
<!-- \\Neilime\\MobileDetect\\View\\Helper\\MobileDetectHelper -->
<g id="node13" class="node"><title>\\Neilime\\MobileDetect\\View\\Helper\\MobileDetectHelper</title>
<polygon fill="none" stroke="black" points="720,-84 582,-84 582,-48 720,-48 720,-84"/>
<text text-anchor="middle" x="651" y="-63.1" font-family="Courier,monospace" font-size="11.00">MobileDetectHelper</text>
</g>
<!-- \\Zend\\View\\Helper\\AbstractHelper -->
<g id="node22" class="node"><title>\\Zend\\View\\Helper\\AbstractHelper</title>
<ellipse fill="none" stroke="black" cx="243" cy="-66" rx="178.191" ry="18.3848"/>
<text text-anchor="middle" x="243" y="-62.4" font-family="Times Roman,serif" font-size="14.00" fill="gray">\Zend\View\Helper\AbstractHelper</text>
</g>
<!-- \\Neilime\\MobileDetect\\View\\Helper\\MobileDetectHelper&#45;&gt;\\Zend\\View\\Helper\\AbstractHelper -->
<g id="edge17" class="edge"><title>\\Neilime\\MobileDetect\\View\\Helper\\MobileDetectHelper&#45;&gt;\\Zend\\View\\Helper\\AbstractHelper</title>
<path fill="none" stroke="black" d="M581.788,-66C540.159,-66 484.976,-66 431.257,-66"/>
<polygon fill="none" stroke="black" points="431.248,-62.5001 421.248,-66 431.248,-69.5001 431.248,-62.5001"/>
</g>
<!-- \\Neilime\\MobileDetect\\View\\Helper\\MobileDetectHelperFactory -->
<g id="node14" class="node"><title>\\Neilime\\MobileDetect\\View\\Helper\\MobileDetectHelperFactory</title>
<polygon fill="none" stroke="black" points="743,-138 559,-138 559,-102 743,-102 743,-138"/>
<text text-anchor="middle" x="651" y="-117.1" font-family="Courier,monospace" font-size="11.00">MobileDetectHelperFactory</text>
</g>
<!-- \\Neilime\\MobileDetect\\View\\Helper\\MobileDetectHelperFactory&#45;&gt;\\Zend\\ServiceManager\\Factory\\FactoryInterface -->
<g id="edge19" class="edge"><title>\\Neilime\\MobileDetect\\View\\Helper\\MobileDetectHelperFactory&#45;&gt;\\Zend\\ServiceManager\\Factory\\FactoryInterface</title>
<path fill="none" stroke="black" stroke-dasharray="1,5" d="M558.418,-134.523C498.608,-143.905 420.366,-156.178 356.773,-166.153"/>
<polygon fill="none" stroke="black" points="356.034,-162.726 346.698,-167.734 357.119,-169.642 356.034,-162.726"/>
</g>
</g>
</svg>
